<?xml version="1.0" encoding="utf-8"?>
<!-- Generator: Adobe Illustrator 18.0.0, SVG Export Plug-In . SVG Version: 6.00 Build 0)  -->
<!DOCTYPE svg PUBLIC "-//W3C//DTD SVG 1.1//EN" "http://www.w3.org/Graphics/SVG/1.1/DTD/svg11.dtd">
<svg fill='#fff' version="1.1" id="Layer_1" xmlns="http://www.w3.org/2000/svg" xmlns:xlink="http://www.w3.org/1999/xlink" x="0px" y="0px"
	 viewBox="0 0 192 218" style="enable-background:new 0 0 192 218;" xml:space="preserve">
<style type="text/css">
	.st0{clip-path:url(#SVGID_2_);}
</style>
<g>
	<path d="M38.8,72.2h-0.4c-5.2,0-9.4,4.3-9.4,9.4v41.1c0,5.2,4.2,9.5,9.4,9.5h0.4c5.2,0,9.4-4.3,9.4-9.5V81.7
		C48.3,76.5,44,72.2,38.8,72.2L38.8,72.2z M38.8,72.2"/>
	<g>
		<defs>
			<rect id="SVGID_1_" x="29" y="20.5" width="134" height="160.7"/>
		</defs>
		<clipPath id="SVGID_2_">
			<use xlink:href="#SVGID_1_"  style="overflow:visible;"/>
		</clipPath>
		<path class="st0" d="M52.8,138.7c0,4.8,3.9,8.7,8.7,8.7h9.3v22.2c0,5.2,4.2,9.4,9.5,9.4h0.4c5.2,0,9.5-4.3,9.5-9.4v-22.2h13v22.2
			c0,5.2,4.3,9.4,9.4,9.4h0.4c5.2,0,9.4-4.3,9.4-9.4v-22.2h9.3c4.8,0,8.7-3.9,8.7-8.7V73.7H52.8V138.7z M52.8,138.7"/>
		<path class="st0" d="M118.4,34.3l7.4-11.4c0.5-0.7,0.3-1.7-0.5-2.1c-0.7-0.5-1.7-0.3-2.1,0.5L115.5,33c-5.7-2.3-12.1-3.7-18.9-3.7
			c-6.8,0-13.2,1.3-18.9,3.7l-7.6-11.8c-0.5-0.8-1.4-1-2.2-0.5c-0.7,0.5-0.9,1.5-0.5,2.1l7.4,11.4c-13.3,6.5-22.3,18.8-22.3,32.9
			c0,0.9,0.1,1.7,0.1,2.6h87.9c0.1-0.9,0.1-1.7,0.1-2.6C140.7,53.2,131.7,40.9,118.4,34.3L118.4,34.3z M76.2,54.7
			c-2.3,0-4.2-1.9-4.2-4.2c0-2.4,1.9-4.2,4.2-4.2c2.3,0,4.2,1.8,4.2,4.2C80.5,52.8,78.6,54.7,76.2,54.7L76.2,54.7z M117,54.7
			c-2.3,0-4.2-1.9-4.2-4.2c0-2.4,1.9-4.2,4.2-4.2c2.4,0,4.2,1.8,4.2,4.2C121.2,52.8,119.3,54.7,117,54.7L117,54.7z M117,54.7"/>
		<path class="st0" d="M154.7,72.2h-0.4c-5.2,0-9.4,4.3-9.4,9.4v41.1c0,5.2,4.3,9.5,9.4,9.5h0.4c5.2,0,9.4-4.3,9.4-9.5V81.7
			C164.2,76.5,159.9,72.2,154.7,72.2L154.7,72.2z M154.7,72.2"/>
	</g>
</g>
</svg>
