<?xml version="1.0" encoding="utf-8"?>
<!-- Generator: Adobe Illustrator 18.0.0, SVG Export Plug-In . SVG Version: 6.00 Build 0)  -->
<!DOCTYPE svg PUBLIC "-//W3C//DTD SVG 1.1//EN" "http://www.w3.org/Graphics/SVG/1.1/DTD/svg11.dtd">
<svg fill='#fff' version="1.1" id="Layer_1" xmlns="http://www.w3.org/2000/svg" xmlns:xlink="http://www.w3.org/1999/xlink" x="0px" y="0px"
	 viewBox="0 0 192 218" style="enable-background:new 0 0 192 218;" xml:space="preserve">
<style type="text/css">
	.st0{clip-path:url(#SVGID_2_);}
</style>
<g>
	<g>
		<defs>
			<rect id="SVGID_1_" x="34.9" y="34" width="122.2" height="150"/>
		</defs>
		<clipPath id="SVGID_2_">
			<use xlink:href="#SVGID_1_"  style="overflow:visible;"/>
		</clipPath>
		<path class="st0" d="M136.9,113.6c-0.2-19,15.5-28.1,16.2-28.5c-8.8-12.9-22.5-14.6-27.4-14.9c-11.7-1.2-22.8,6.9-28.7,6.9
			c-5.9,0-15-6.7-24.7-6.5c-12.7,0.2-24.5,7.4-31,18.8c-13.2,22.9-3.4,56.9,9.5,75.5c6.3,9.1,13.8,19.3,23.7,19
			c9.5-0.4,13.1-6.1,24.6-6.1c11.5,0,14.7,6.1,24.7,6c10.2-0.2,16.7-9.3,22.9-18.4c7.2-10.6,10.2-20.8,10.4-21.3
			C156.7,143.8,137,136.3,136.9,113.6L136.9,113.6z M118,57.9c5.2-6.3,8.8-15.2,7.8-23.9c-7.5,0.3-16.7,5-22.1,11.4
			c-4.8,5.6-9.1,14.6-8,23.2C104.2,69.2,112.7,64.3,118,57.9L118,57.9z M118,57.9"/>
	</g>
</g>
</svg>
