<?xml version="1.0" encoding="utf-8"?>
<!-- Generator: Adobe Illustrator 18.0.0, SVG Export Plug-In . SVG Version: 6.00 Build 0)  -->
<!DOCTYPE svg PUBLIC "-//W3C//DTD SVG 1.1//EN" "http://www.w3.org/Graphics/SVG/1.1/DTD/svg11.dtd">
<svg fill='#fff' version="1.1" id="Layer_1" xmlns="http://www.w3.org/2000/svg" xmlns:xlink="http://www.w3.org/1999/xlink" x="0px" y="0px"
	 viewBox="0 0 63.5 55.4" style="enable-background:new 0 0 63.5 55.4;" xml:space="preserve">
<g>
	<g>
		<path d="M19,25.1l2.2-1.4c1,1.1,2.2,1.9,3.5,2.5L24,28.7l3.9,0.9l0.6-2.5c1.4,0.1,2.8-0.2,4.2-0.7l1.4,2.2l3.4-2.1l-1.4-2.2
			c1.1-1,1.9-2.2,2.5-3.5l2.5,0.6l0.9-3.9l-2.5-0.6c0.1-1.4-0.2-2.8-0.7-4.2l2.2-1.4l-2.1-3.4l-2.2,1.4c-1-1.1-2.2-1.9-3.5-2.5
			l0.6-2.5l-3.9-0.9l-0.6,2.5c-1.4-0.1-2.8,0.2-4.2,0.7l-1.4-2.2l-3.4,2.1l1.4,2.2c-1.1,1-1.9,2.2-2.5,3.5l-2.5-0.6l-0.9,3.9
			l2.5,0.6c0,1.4,0.2,2.8,0.7,4.2l-2.2,1.4L19,25.1z M25.1,10.3c3.4-2.1,7.9-1.1,10,2.3c2.1,3.4,1.1,7.9-2.3,10
			c-3.4,2.1-7.9,1.1-10-2.3C20.6,16.9,21.7,12.5,25.1,10.3z"/>
		<path d="M50.5,28.6l1.3-0.2l-0.3-2.1l-1.3,0.2c-0.2-0.7-0.6-1.3-1.1-1.9l0.8-1.1l-1.7-1.3l-0.8,1.1c-0.7-0.3-1.4-0.5-2.1-0.6
			l-0.2-1.3L43,21.7l0.2,1.3c-0.7,0.2-1.4,0.6-1.9,1.1l-1.1-0.8L38.9,25l1.1,0.8c-0.3,0.7-0.5,1.4-0.6,2.1l-1.3,0.2l0.3,2.1l1.3-0.2
			c0.2,0.7,0.6,1.3,1.1,1.9L40,33l1.7,1.3l0.8-1.1c0.7,0.3,1.4,0.5,2.1,0.6l0.2,1.3l2.1-0.3l-0.2-1.3c0.7-0.2,1.3-0.6,1.9-1.1
			l1.1,0.8l1.3-1.7l-1.1-0.8C50.2,30,50.4,29.3,50.5,28.6z M47.5,30.2c-1.1,1.4-3.1,1.7-4.6,0.6c-1.4-1.1-1.7-3.1-0.6-4.6
			c1.1-1.4,3.1-1.7,4.6-0.6C48.3,26.8,48.6,28.8,47.5,30.2z"/>
		<path d="M39.1,39L35,37.3l-1.7-4.1l4.1-4.1c-2-0.3-4.2,0.3-5.8,1.9c-2.2,2.1-2.6,5.4-1.2,7.9L19,50.2l0,0c0,0,0,0,0,0
			c-0.3,0.3,0.1,1.2,0.9,2c0.8,0.8,1.7,1.2,2.1,0.9c0,0,0,0,0,0l11.4-11.3c2.6,1.3,5.8,1,7.9-1.2c1.6-1.6,2.2-3.7,1.9-5.8L39.1,39z"
			/>
	</g>
</g>
</svg>
