<?xml version="1.0" encoding="utf-8"?>
<!-- Generator: Adobe Illustrator 18.0.0, SVG Export Plug-In . SVG Version: 6.00 Build 0)  -->
<!DOCTYPE svg PUBLIC "-//W3C//DTD SVG 1.1//EN" "http://www.w3.org/Graphics/SVG/1.1/DTD/svg11.dtd">
<svg version="1.1" id="Layer_1" xmlns="http://www.w3.org/2000/svg" xmlns:xlink="http://www.w3.org/1999/xlink" x="0px" y="0px"
	 viewBox="0 0 192 218" style="enable-background:new 0 0 192 218;" xml:space="preserve">
<style type="text/css">
	.st0{clip-path:url(#SVGID_2_);}
</style>
<g>
	<g>
		<defs>
			<rect id="SVGID_1_" x="15.6" y="44.6" width="145.3" height="129.1"/>
		</defs>
		<clipPath id="SVGID_2_">
			<use xlink:href="#SVGID_1_"  style="overflow:visible;"/>
		</clipPath>
		<path class="st0" d="M152.4,44.6h-128c-4.8,0-8.7,3.9-8.7,8.7v110.6c0,4.8,3.9,8.7,8.7,8.7h128c4.8,0,8.7-3.9,8.7-8.7V53.4
			C161.1,48.5,157.2,44.6,152.4,44.6L152.4,44.6z M130.5,50.5c3.2,0,5.8,2.6,5.8,5.8c0,3.2-2.6,5.8-5.8,5.8c-3.2,0-5.8-2.6-5.8-5.8
			C124.7,53.1,127.3,50.5,130.5,50.5L130.5,50.5z M114.5,50.5c3.2,0,5.8,2.6,5.8,5.8c0,3.2-2.6,5.8-5.8,5.8c-3.2,0-5.8-2.6-5.8-5.8
			C108.7,53.1,111.3,50.5,114.5,50.5L114.5,50.5z M63.2,163.9c2.1-12.1,12.5-21.2,25.2-21.2c12.6,0,23.1,9.2,25.2,21.2H63.2z
			 M152.4,160.6c0-2.8-2.3-5.1-5.1-5.1h-9.3c-1.2-4.7-3.1-9.1-5.5-13.2l6.6-6.6c2-2,2-5.2,0-7.2l-10.9-10.9c-2-2-5.2-2-7.2,0
			l-6.6,6.6c-4.1-2.4-8.6-4.3-13.2-5.5v-9.3c0-2.8-2.2-5.1-5.1-5.1H80.7c-2.8,0-5.1,2.3-5.1,5.1v9.3c-4.7,1.2-9.1,3.1-13.2,5.5
			l-6.6-6.6c-2-2-5.3-2-7.3,0l-10.9,10.9c-2,2-2,5.2,0,7.2l6.6,6.6c-2.4,4.1-4.3,8.6-5.5,13.2h-9.3c-2.8,0-5.1,2.2-5.1,5.1V67.9h128
			V160.6z M146.5,62.1c-3.2,0-5.8-2.6-5.8-5.8c0-3.2,2.6-5.8,5.8-5.8c3.2,0,5.8,2.6,5.8,5.8C152.4,59.5,149.8,62.1,146.5,62.1
			L146.5,62.1z M146.5,62.1"/>
	</g>
</g>
</svg>
