<?xml version="1.0" encoding="utf-8"?>
<!-- Generator: Adobe Illustrator 18.0.0, SVG Export Plug-In . SVG Version: 6.00 Build 0)  -->
<!DOCTYPE svg PUBLIC "-//W3C//DTD SVG 1.1//EN" "http://www.w3.org/Graphics/SVG/1.1/DTD/svg11.dtd">
<svg fill='#fff' version="1.1" id="Layer_1" xmlns="http://www.w3.org/2000/svg" xmlns:xlink="http://www.w3.org/1999/xlink" x="0px" y="0px"
	 viewBox="0 0 192 218" style="enable-background:new 0 0 192 218;" xml:space="preserve">
<style type="text/css">
	.st0{clip-path:url(#SVGID_2_);}
	.st1{fill:#fff;}
</style>
<g>
	<g>
		<defs>
			<rect id="SVGID_1_" x="30.6" y="40.2" width="105.9" height="95.4"/>
		</defs>
		<clipPath id="SVGID_2_">
			<use xlink:href="#SVGID_1_"  style="overflow:visible;"/>
		</clipPath>
		<path class="st0" d="M115.6,134.9c-0.8,0-1.6-0.2-2.3-0.7l-26.6-18l-14.2,10.3c-1.1,0.8-2.6,1-3.9,0.5c-1.3-0.5-2.3-1.5-2.6-2.9
			L58.8,97l-25.6-9.8c-1.6-0.6-2.7-2.2-2.7-3.9c0-1.7,1-3.3,2.6-3.9l97.2-38.7c0.4-0.2,0.9-0.3,1.4-0.3c0.2,0,0.3,0,0.5,0
			c1,0.1,1.9,0.5,2.7,1.2c0.1,0.1,0.2,0.2,0.2,0.2c0.6,0.7,1,1.6,1,2.4c0,0.2,0,0.4,0,0.7c0,0.2,0,0.3-0.1,0.5l-16.4,86.1
			c-0.3,1.4-1.2,2.5-2.5,3.1C116.7,134.8,116.2,134.9,115.6,134.9L115.6,134.9z M89.1,107.7l23.7,16.1l12.8-67l-46.1,44.4l9.6,6.5
			C89,107.6,89,107.6,89.1,107.7L89.1,107.7z M69.4,104.1l3.2,12l6.8-4.9l-8.9-6.1C70,104.8,69.7,104.5,69.4,104.1L69.4,104.1z
			 M46.3,83.2L63.8,90c1.3,0.5,2.2,1.5,2.6,2.8l2.2,8.4c0.1-1,0.5-1.9,1.3-2.6l43.9-42.3L46.3,83.2z M46.3,83.2"/>
	</g>
	<g>
		<path class="st1" d="M57.8,179.3H40.1v-2.5h17.6V179.3z"/>
		<path class="st1" d="M67.2,170.6L67.2,170.6l-0.1,2.5h-6.6v-31.5h6.6v13.4h0.1c1.6-2.5,3.9-3.7,6.9-3.7c2.7,0,4.9,0.9,6.3,2.8
			c1.5,1.9,2.2,4.5,2.2,7.7c0,3.5-0.9,6.4-2.6,8.5c-1.7,2.1-4,3.2-6.9,3.2C70.5,173.6,68.5,172.6,67.2,170.6z M67,161.7v2.2
			c0,1.4,0.4,2.5,1.2,3.4c0.8,0.9,1.8,1.3,3,1.3c1.5,0,2.7-0.6,3.5-1.7s1.2-2.8,1.2-4.9c0-1.8-0.4-3.1-1.1-4.1
			c-0.8-1-1.8-1.5-3.2-1.5c-1.3,0-2.4,0.5-3.3,1.5C67.4,158.8,67,160.1,67,161.7z"/>
		<path class="st1" d="M97,173.6c-3.5,0-6.3-1-8.4-3c-2-2-3-4.7-3-8.1c0-3.5,1.1-6.3,3.2-8.3c2.1-2,4.9-3,8.5-3c3.5,0,6.3,1,8.3,3
			s3,4.6,3,7.9c0,3.5-1,6.3-3.1,8.4C103.4,172.6,100.6,173.6,97,173.6z M97.2,156.4c-1.6,0-2.8,0.5-3.6,1.6
			c-0.9,1.1-1.3,2.6-1.3,4.5c0,4.1,1.6,6.1,4.9,6.1c3.1,0,4.7-2.1,4.7-6.3C101.9,158.3,100.3,156.4,97.2,156.4z"/>
		<path class="st1" d="M125.7,172.9c-1,0.5-2.4,0.8-4.4,0.8c-4.6,0-6.9-2.4-6.9-7.2v-9.7H111v-4.8h3.4v-4.6l6.5-1.9v6.5h4.8v4.8
			h-4.8v8.6c0,2.2,0.9,3.3,2.6,3.3c0.7,0,1.4-0.2,2.1-0.6V172.9z"/>
	</g>
</g>
</svg>
