<?xml version="1.0" encoding="utf-8"?>
<!-- Generator: Adobe Illustrator 18.0.0, SVG Export Plug-In . SVG Version: 6.00 Build 0)  -->
<!DOCTYPE svg PUBLIC "-//W3C//DTD SVG 1.1//EN" "http://www.w3.org/Graphics/SVG/1.1/DTD/svg11.dtd">
<svg fill='#fff' version="1.1" id="Layer_1" xmlns="http://www.w3.org/2000/svg" xmlns:xlink="http://www.w3.org/1999/xlink" x="0px" y="0px"
	 viewBox="0 0 192 218" style="enable-background:new 0 0 192 218;" xml:space="preserve">
<style type="text/css">
	.st0{stroke:#000000;stroke-width:1.7601;stroke-miterlimit:10;}
</style>
<g>
	<polygon points="100.2,66.6 100.9,75 90.5,75 91.2,66.6 	"/>
	<path d="M90.8,61.2c-2.9-10.4-12.1-10.5-12.1-10.5H40.8c-7.1,0-13.4,4.9-14.8,11.9c0,0,0,0.1,0,0.1c-0.2,0.8-0.2,1.7-0.1,2.5
		L27.4,88c0.2,2.8,0.9,5.5,2.3,7.8c1,1.6,2,2.8,3.2,3.8c3,2.6,7,3.9,10.9,3.9h29.5c7.4-0.5,11.6-4,13.8-7.4c1.7-2.6,2.6-5.6,2.8-8.6
		l1.3-19.7C91.5,65.7,91.4,63.4,90.8,61.2z M84.8,69.8l-1.2,17.3c0,0-1.3,10.4-13.2,11.2H46.8c-3.2,0-6.4-1-8.8-3.1
		c-0.9-0.8-1.8-1.8-2.6-3.1c-1.1-1.9-1.7-4.1-1.9-6.3l-1.3-18.2c-0.1-0.7,0-1.4,0.1-2c0,0,0-0.1,0-0.1c1.1-5.6,6.1-9.5,11.8-9.5
		h30.3c0,0,7.4,0.1,9.7,8.4C84.8,66.1,84.9,68,84.8,69.8z"/>
	<path d="M164.8,61.2c-2.9-10.4-12.1-10.5-12.1-10.5h-37.9c-7.1,0-13.4,4.9-14.8,11.9c0,0,0,0.1,0,0.1c-0.2,0.8-0.2,1.7-0.1,2.5
		l1.6,22.8c0.2,2.8,0.9,5.5,2.3,7.8c1,1.6,2.1,2.8,3.2,3.8c3,2.6,7,3.9,10.9,3.9h29.5c7.4-0.5,11.6-4,13.8-7.4
		c1.7-2.6,2.6-5.6,2.8-8.6l1.3-19.7C165.5,65.7,165.4,63.4,164.8,61.2z M158.8,69.8l-1.1,17.3c0,0-1.3,10.4-13.2,11.2h-23.6
		c-3.2,0-6.4-1-8.8-3.1c-0.9-0.8-1.8-1.8-2.5-3.1c-1.1-1.9-1.7-4.1-1.9-6.3l-1.3-18.2c0-0.7,0-1.4,0.1-2c0,0,0-0.1,0-0.1
		c1.1-5.6,6.1-9.5,11.8-9.5h30.3c0,0,7.4,0.1,9.7,8.4C158.8,66.1,158.9,68,158.8,69.8z"/>
	<path class="st0" d="M95.6,112.2l0,17.1c-34,28.6-71.4-7.3-71.4-7.3c27.9,12.2,50.1-3.9,55.4-8.4c1.4-1.2,2.9-2.2,4.6-2.9
		C91.6,107.8,95.6,112.2,95.6,112.2z"/>
	<path class="st0" d="M167.8,122c0,0-37.5,36-71.4,7.3l0-17.1c0,0,4-4.4,11.4-1.4c1.7,0.7,3.2,1.7,4.6,2.9
		C117.7,118.1,139.9,134.2,167.8,122z"/>
</g>
</svg>
