<?xml version="1.0" encoding="utf-8"?>
<!-- Generator: Adobe Illustrator 18.0.0, SVG Export Plug-In . SVG Version: 6.00 Build 0)  -->
<!DOCTYPE svg PUBLIC "-//W3C//DTD SVG 1.1//EN" "http://www.w3.org/Graphics/SVG/1.1/DTD/svg11.dtd">
<svg version="1.1" id="Layer_1" xmlns="http://www.w3.org/2000/svg" xmlns:xlink="http://www.w3.org/1999/xlink" x="0px" y="0px"
	 viewBox="0 0 192 218" style="enable-background:new 0 0 192 218;" xml:space="preserve">
<style type="text/css">
	.st0{fill:none;}
	.st1{fill:#030202;stroke:#030202;stroke-width:0.8859;stroke-miterlimit:10;}
	.st2{fill:#030202;stroke:#030202;stroke-width:0.7333;stroke-miterlimit:10;}
	.st3{fill:#030202;stroke:#030202;stroke-width:0.7625;stroke-miterlimit:10;}
</style>
<g>
	<circle class="st0" cx="87.9" cy="62.4" r="10.4"/>
	<circle class="st0" cx="83.5" cy="96.5" r="14.6"/>
	<path class="st0" d="M98.1,124.2c0,2.9-2.4,5.3-5.3,5.3s-5.3-2.4-5.3-5.3c0-2.9,2.4-5.3,5.3-5.3S98.1,121.2,98.1,124.2z"/>
	<circle class="st0" cx="134.6" cy="111.1" r="8.2"/>
	<path class="st1" d="M149.3,84.8c-3.6,8.2-11.8,13.9-21.3,13.9c-12.8,0-23.3-10.4-23.3-23.3s10.4-23.3,23.3-23.3c0.4,0,0.8,0,1.2,0
		c-9.3-7.3-21-11.6-33.7-11.6c-26.6,0-48.8,18.9-53.8,44.1c2-0.8,4.2-1.3,6.5-1.3c9.8,0,17.7,7.9,17.7,17.7s-7.9,17.7-17.7,17.7
		c-0.8,0-1.6-0.1-2.4-0.2c6.7,14.2,19.2,25,34.5,29.4h22.2c-1.1-1.8-1.8-3.9-1.8-6.2c0-6.5,5.3-11.7,11.7-11.7
		c6.5,0,11.7,5.3,11.7,11.7c0,0.1,0,0.1,0,0.2c15.6-9.7,26.1-26.9,26.1-46.7C150.3,91.8,149.9,88.2,149.3,84.8z M92.8,129.5
		c-2.9,0-5.3-2.4-5.3-5.3c0-2.9,2.4-5.3,5.3-5.3s5.3,2.4,5.3,5.3C98.1,127.1,95.7,129.5,92.8,129.5z M83.5,111.1
		c-8.1,0-14.6-6.5-14.6-14.6s6.5-14.6,14.6-14.6s14.6,6.5,14.6,14.6S91.5,111.1,83.5,111.1z M87.9,72.8c-5.7,0-10.4-4.7-10.4-10.4
		s4.7-10.4,10.4-10.4s10.4,4.7,10.4,10.4S93.6,72.8,87.9,72.8z M134.6,119.3c-4.5,0-8.2-3.7-8.2-8.2c0-4.5,3.7-8.2,8.2-8.2
		c4.5,0,8.2,3.7,8.2,8.2C142.8,115.6,139.2,119.3,134.6,119.3z"/>
	<polyline class="st1" points="63.4,140.4 63.4,148.1 80.4,148.1 	"/>
	<path class="st1" d="M127.4,140.4v7.7h-8.1c0,0,4.3-1.3,4.9-6.2"/>
	<rect x="63.4" y="152.2" class="st2" width="64" height="2.7"/>
	<rect x="63.4" y="158" class="st3" width="64" height="3"/>
	<path class="st1" d="M63.4,163.9h64c0,0,2.5,10.2-10.6,13.1c0,0-3.7,11-20.8,11.1s-21.4-9.7-22.2-11.2
		C73.8,176.9,62.5,175.6,63.4,163.9z"/>
</g>
</svg>
