<?xml version="1.0" encoding="utf-8"?>
<!-- Generator: Adobe Illustrator 18.0.0, SVG Export Plug-In . SVG Version: 6.00 Build 0)  -->
<!DOCTYPE svg PUBLIC "-//W3C//DTD SVG 1.1//EN" "http://www.w3.org/Graphics/SVG/1.1/DTD/svg11.dtd">
<svg fill='#fff' version="1.1" id="Layer_1" xmlns="http://www.w3.org/2000/svg" xmlns:xlink="http://www.w3.org/1999/xlink" x="0px" y="0px"
	 viewBox="0 0 63.5 55.4" style="enable-background:new 0 0 63.5 55.4;" xml:space="preserve">
<g>
	<g>
		<path d="M40.3,33.3l-4.4-2.6c-0.2,0-0.5,0.1-0.7,0.1c-1.2,0.3-2.8,1.3-4.2,4c-1.1,2.1-0.7,3.9-0.3,5.5c0.3,1.5,0.6,2.7-0.4,3.9
			c-0.1,0.1-0.1,0.3-0.1,0.4c0,0.1,0.1,0.2,0.2,0.2c0,0,0.1,0,0.2,0.1c2.6,0.3,6.5-1.2,8.8-5.3c1.1-1.9,1.5-3.7,1.3-5.2
			C40.6,34,40.5,33.7,40.3,33.3z M36,33.6c-0.1,0.2-0.2,0.4-0.4,0.5c-1.5,0.7-1.8,1.9-1.8,1.9c-0.1,0.3-0.3,0.6-0.6,0.7
			c0,0-0.1,0-0.1,0c-0.1,0-0.2,0-0.3,0c-0.5-0.1-0.8-0.5-0.7-1c0-0.1,0.4-2.1,2.7-3.1c0,0,0.1,0,0.1,0c0.4-0.1,0.8,0.1,1,0.5
			C36,33.1,36,33.4,36,33.6z"/>
		<path d="M50.7,10.2c-0.9-0.5-2-0.3-2.6,0.6c-0.4,0.5-8.9,13.2-10,15.1c-0.6,1-1.2,2.5-1.7,3.9l4.4,2.6c1-1.1,2-2.5,2.6-3.4
			c1.1-1.9,7.8-15.6,8.1-16.2C52,11.8,51.6,10.7,50.7,10.2z"/>
		<path d="M29.4,38.1c-0.4-0.1-0.8-0.2-1.1-0.2c-0.1,0-0.1,0-0.2,0c-0.6,0-1.3,0.1-2,0.2c-0.6,0.1-1.2,0.2-1.6,0.2
			c-0.3,0-0.4-0.1-0.4-0.1c-0.3-0.4,0.2-1.6,0.4-2.1c0.1-0.1,0.1-0.2,0.1-0.3c0.3-1,0.6-2.1,0.1-3.1c-0.4-0.9-1.3-1.5-2.4-1.7
			c-0.3-0.1-0.6-0.1-1.1-0.1c-0.4,0-0.7,0-1.1,0c-0.4,0-0.8,0-1.2,0c-1.3,0-2.1-0.3-2.5-1c-0.8-1.3,0.2-3.7,1.2-4.8
			c0.1-0.1,0.1-0.2,0-0.2c-0.1-0.1-0.2-0.1-0.2,0c-1.3,1-2.2,2.7-2.2,4.3c0,0.8,0.4,2,1.7,2.8c0.7,0.4,1.8,0.5,2.9,0.6
			c1.1,0.1,2.2,0.2,2.5,0.6c0.1,0.1,0.1,0.2,0.1,0.4c-0.1,0.8-0.4,1.5-0.8,2.3c-0.7,1.4-1.4,2.8-0.2,4.4c1.1,1.4,2.5,1.4,3.9,1.4
			c0.1,0,0.2,0,0.4,0c0.6,0,1.4,0,2,0.3c0.5,0.2,0.7,0.6,0.8,1.3c0.1,0.5,0.3,0.8,0.6,1.1c0-0.2,0.1-0.4,0.3-0.6
			c0.7-0.8,0.6-1.6,0.2-3.2C29.6,39.8,29.4,39,29.4,38.1z"/>
	</g>
</g>
</svg>
