<?xml version="1.0" encoding="utf-8"?>
<!-- Generator: Adobe Illustrator 18.0.0, SVG Export Plug-In . SVG Version: 6.00 Build 0)  -->
<!DOCTYPE svg PUBLIC "-//W3C//DTD SVG 1.1//EN" "http://www.w3.org/Graphics/SVG/1.1/DTD/svg11.dtd">
<svg fill='#fff' version="1.1" id="Layer_1" xmlns="http://www.w3.org/2000/svg" xmlns:xlink="http://www.w3.org/1999/xlink" x="0px" y="0px"
	 viewBox="0 0 192 218" style="enable-background:new 0 0 192 218;" xml:space="preserve">
<style type="text/css">
	.st0{fill:none;stroke:#fff;stroke-width:2.2516;stroke-linecap:round;stroke-linejoin:round;stroke-miterlimit:10;}
	.st1{fill:none;stroke:#fff;stroke-width:2;stroke-linecap:round;stroke-linejoin:round;stroke-miterlimit:10;}
	.st2{fill:none;stroke:#fff;stroke-width:2;stroke-linecap:round;stroke-miterlimit:10;}
</style>
<g>
	<g>
		<path d="M61.9,127c-0.2-0.2-0.2-0.4-0.2-0.6v-15.6c0-1.1,0.2-2.2,0.6-3.3c0.4-1.1,1-2,1.7-2.9c0.8-0.9,1.7-1.6,2.8-2
			c1.1-0.5,2.3-0.7,3.6-0.7c1.4,0,2.7,0.3,3.9,0.8c1.1,0.5,2.1,1.2,2.9,2.1c0.8,0.9,1.4,1.9,1.8,3c0.4,1.1,0.6,2.3,0.6,3.5v15.2
			c0,0.2-0.1,0.4-0.3,0.6c-0.2,0.2-0.4,0.3-0.6,0.3c-0.2,0-0.5-0.1-0.6-0.2c-0.2-0.2-0.3-0.4-0.3-0.6V119H63.5v7.4
			c0,0.2-0.1,0.4-0.3,0.6c-0.2,0.2-0.4,0.3-0.6,0.3C62.3,127.3,62.1,127.2,61.9,127z M77.8,117.3v-6c0-1.1-0.2-2.1-0.5-3
			c-0.4-0.9-0.9-1.8-1.5-2.5c-0.7-0.7-1.5-1.3-2.4-1.6c-0.9-0.4-1.9-0.6-2.9-0.6c-1,0-1.9,0.2-2.8,0.6c-0.9,0.4-1.6,0.9-2.2,1.6
			c-0.6,0.7-1.1,1.5-1.5,2.4c-0.3,0.9-0.5,1.9-0.5,2.9v6.3H77.8z"/>
	</g>
	<g>
		<path d="M101.8,127c-0.2-0.2-0.3-0.4-0.3-0.7v-9.4c-0.8,1.3-1.9,2.3-3.3,3.1c-1.4,0.8-2.9,1.2-4.4,1.2c-1.3,0-2.5-0.2-3.7-0.7
			c-1.2-0.5-2.2-1.2-3.1-2c-0.9-0.9-1.6-1.9-2.1-3.1c-0.5-1.2-0.7-2.4-0.7-3.7v-8.8c0-0.3,0.1-0.5,0.3-0.7c0.2-0.2,0.4-0.3,0.7-0.3
			c0.2,0,0.5,0.1,0.6,0.3c0.2,0.2,0.3,0.4,0.3,0.7v9c0,1,0.2,2,0.6,2.9c0.4,0.9,1,1.7,1.7,2.4c0.7,0.7,1.6,1.2,2.5,1.6
			c0.9,0.4,1.9,0.6,2.9,0.6c1,0,2-0.2,2.9-0.6c0.9-0.4,1.8-0.9,2.5-1.6c0.7-0.7,1.3-1.5,1.7-2.4c0.4-0.9,0.6-1.9,0.6-2.9v-9
			c0-0.3,0.1-0.5,0.3-0.7c0.2-0.2,0.4-0.3,0.7-0.3c0.2,0,0.5,0.1,0.6,0.3c0.2,0.2,0.3,0.4,0.3,0.7v23.5c0,0.3-0.1,0.5-0.3,0.7
			c-0.2,0.2-0.4,0.3-0.6,0.3C102.2,127.3,102,127.2,101.8,127z"/>
	</g>
	<g>
		<path d="M108.9,126.9c-0.2-0.2-0.4-0.5-0.4-0.9v-10.8c0-1.8,0.3-3.5,1-5.1c0.7-1.6,1.6-3,2.9-4.3c1.2-1.2,2.6-2.2,4.3-2.9
			c1.6-0.7,3.3-1,5.1-1h0.1l0.1,0c0,0,0.1,0,0.2,0c0.4,0,0.7,0.1,0.9,0.3c0.2,0.2,0.3,0.5,0.3,0.9c0,0.3-0.1,0.6-0.3,0.8
			c-0.2,0.2-0.5,0.3-0.9,0.3h-0.3c-1.5,0-2.8,0.3-4.2,0.9c-1.3,0.6-2.5,1.4-3.5,2.4c-1,1-1.8,2.2-2.4,3.5c-0.6,1.3-0.9,2.8-0.9,4.3
			v10.8c0,0.4-0.1,0.6-0.3,0.9c-0.2,0.2-0.5,0.3-0.8,0.3C109.4,127.3,109.1,127.1,108.9,126.9z"/>
	</g>
	<g>
		<path d="M157.2,126.9c-0.2-0.2-0.3-0.5-0.3-0.8c0-0.3,0.1-0.5,0.4-0.8l19.3-21.1h-17.9c-0.3,0-0.6-0.1-0.8-0.3
			c-0.2-0.2-0.3-0.5-0.3-0.8c0-0.3,0.1-0.6,0.3-0.8c0.2-0.2,0.5-0.3,0.8-0.3H179c0.3,0,0.6,0.1,0.8,0.3c0.2,0.2,0.3,0.5,0.3,0.8
			c0,0.1,0,0.3-0.1,0.6l-0.2,0.3L160.5,125h19.2c0.4,0,0.6,0.1,0.9,0.3c0.2,0.2,0.3,0.5,0.3,0.8c0,0.3-0.1,0.6-0.3,0.8
			c-0.2,0.2-0.5,0.3-0.9,0.3h-21.6C157.7,127.2,157.4,127.1,157.2,126.9z"/>
	</g>
	<g>
		<path class="st0" d="M151.8,102.9H140c-2.4,0-4.7,0.6-6.7,1.9c-2.5,1.6-5,4.5-5.2,9.8c0,0-0.8,6.9,5.5,10.3
			c1.8,0.9,3.8,1.4,5.8,1.4h12.4"/>
		<line class="st1" x1="131" y1="114" x2="147" y2="114"/>
	</g>
	<path class="st2" d="M54,91H20.5c-5.5,0-9.5,4.1-9.5,9.6v0c0,5.5,4,9.4,9.5,9.4H45"/>
	<path class="st2" d="M20.4,106.3l23.8-0.1c5.5,0,9.8,4.4,9.8,10v0c0,5.5-4.3,10-9.8,10l-33.5,0.1"/>
</g>
</svg>
