<?xml version="1.0" encoding="utf-8"?>
<!-- Generator: Adobe Illustrator 18.0.0, SVG Export Plug-In . SVG Version: 6.00 Build 0)  -->
<!DOCTYPE svg PUBLIC "-//W3C//DTD SVG 1.1//EN" "http://www.w3.org/Graphics/SVG/1.1/DTD/svg11.dtd">
<svg version="1.1" id="Layer_1" xmlns="http://www.w3.org/2000/svg" xmlns:xlink="http://www.w3.org/1999/xlink" x="0px" y="0px"
	 viewBox="0 0 479.8 218" style="enable-background:new 0 0 479.8 218;" xml:space="preserve">
<style type="text/css">
	.st0{fill:none;stroke:#000000;stroke-width:5.3911;stroke-linecap:round;stroke-linejoin:round;stroke-miterlimit:10;}
	.st1{fill:none;stroke:#000000;stroke-width:5;stroke-linecap:round;stroke-linejoin:round;stroke-miterlimit:10;}
	.st2{fill:none;stroke:#000000;stroke-width:6;stroke-linecap:round;stroke-miterlimit:10;}
</style>
<g>
	<g>
		<path d="M158.8,153.2c-0.4-0.4-0.6-0.9-0.6-1.5v-37.3c0-2.7,0.5-5.3,1.4-7.9c1-2.6,2.3-4.9,4-6.9c1.8-2.1,4.1-3.7,6.7-4.9
			c2.6-1.2,5.5-1.8,8.7-1.8c3.4,0,6.5,0.6,9.2,1.8c2.7,1.2,5.1,2.9,7,5.1c1.8,2.1,3.3,4.5,4.3,7.1c1,2.7,1.5,5.4,1.5,8.3v36.4
			c0,0.6-0.2,1-0.6,1.4c-0.4,0.4-0.9,0.6-1.5,0.6c-0.6,0-1.1-0.2-1.5-0.6c-0.4-0.4-0.6-0.9-0.6-1.5V134h-34.4v17.7
			c0,0.6-0.2,1-0.6,1.4c-0.4,0.4-0.9,0.6-1.5,0.6C159.7,153.8,159.2,153.6,158.8,153.2z M196.9,129.8v-14.3c0-2.5-0.4-4.9-1.3-7.2
			c-0.9-2.3-2.1-4.2-3.7-5.9c-1.6-1.7-3.5-3-5.7-3.9c-2.2-0.9-4.5-1.4-7-1.4c-2.4,0-4.7,0.4-6.7,1.3c-2,0.9-3.8,2.1-5.3,3.7
			c-1.5,1.6-2.7,3.5-3.5,5.7c-0.8,2.2-1.2,4.5-1.2,6.9v15H196.9z"/>
	</g>
	<g>
		<path d="M254.2,153.1c-0.4-0.4-0.6-1-0.6-1.6v-22.6c-2,3.1-4.6,5.5-7.8,7.4c-3.3,1.9-6.9,2.9-10.6,2.9c-3.1,0-6-0.6-8.8-1.8
			s-5.2-2.8-7.3-4.9c-2.1-2.1-3.8-4.5-5-7.3c-1.2-2.8-1.8-5.7-1.8-8.9V95.2c0-0.6,0.2-1.2,0.7-1.6c0.4-0.4,1-0.6,1.6-0.6
			c0.6,0,1.1,0.2,1.5,0.6c0.4,0.4,0.7,1,0.7,1.6v21.5c0,2.4,0.5,4.8,1.5,7c1,2.2,2.3,4.1,4.1,5.8c1.7,1.7,3.7,3,5.9,3.9
			c2.2,0.9,4.6,1.4,7.1,1.4c2.4,0,4.8-0.5,7-1.4c2.3-0.9,4.2-2.2,5.9-3.9c1.7-1.7,3.1-3.6,4.1-5.8c1-2.2,1.5-4.5,1.5-7V95.2
			c0-0.6,0.2-1.2,0.7-1.6c0.4-0.4,1-0.6,1.6-0.6c0.6,0,1.1,0.2,1.5,0.6c0.4,0.4,0.6,1,0.6,1.6v56.3c0,0.6-0.2,1.2-0.6,1.6
			c-0.4,0.4-0.9,0.6-1.5,0.6C255.1,153.7,254.6,153.5,254.2,153.1z"/>
	</g>
	<g>
		<path d="M271.2,152.9c-0.6-0.5-0.8-1.2-0.8-2V125c0-4.3,0.8-8.4,2.5-12.3c1.6-3.9,3.9-7.3,6.9-10.3c2.9-3,6.3-5.3,10.2-6.9
			c3.9-1.7,7.9-2.5,12.2-2.5h0.1l0.1,0.1c0,0,0.2-0.1,0.4-0.1c0.9,0,1.6,0.3,2.1,0.8s0.8,1.2,0.8,2.1c0,0.8-0.3,1.5-0.8,2
			c-0.5,0.5-1.2,0.8-2.1,0.8H302c-3.5,0-6.8,0.7-10,2c-3.2,1.4-6,3.3-8.4,5.7c-2.4,2.4-4.3,5.3-5.7,8.5c-1.4,3.2-2.1,6.6-2.1,10.2
			v25.8c0,0.8-0.2,1.5-0.7,2c-0.5,0.5-1.1,0.8-1.9,0.8C272.4,153.7,271.7,153.4,271.2,152.9z"/>
	</g>
	<g>
		<path d="M386.9,152.8c-0.5-0.6-0.8-1.2-0.8-2c0-0.7,0.3-1.3,0.9-1.9l46.2-50.5h-42.9c-0.8,0-1.5-0.3-2-0.8c-0.5-0.5-0.8-1.2-0.8-2
			c0-0.8,0.3-1.5,0.8-2c0.5-0.5,1.2-0.8,2-0.8H439c0.7,0,1.3,0.3,1.9,0.8c0.5,0.5,0.8,1.2,0.8,1.9c0,0.3-0.1,0.8-0.3,1.4l-0.5,0.7
			l-46.2,50.5h46c0.8,0,1.5,0.2,2.1,0.7c0.5,0.5,0.8,1.1,0.8,1.9c0,0.8-0.3,1.5-0.8,2c-0.5,0.5-1.2,0.8-2.1,0.8H389
			C388.2,153.6,387.5,153.4,386.9,152.8z"/>
	</g>
	<g>
		<path class="st0" d="M374.1,95.4h-28.3c-5.6,0-11.2,1.5-16,4.5c-6,3.8-12.1,10.8-12.4,23.4c0,0-2,16.5,13.2,24.6
			c4.3,2.2,9,3.3,13.9,3.3h29.6"/>
		<line class="st1" x1="324" y1="122.5" x2="363" y2="122.5"/>
	</g>
	<path class="st2" d="M141,66H59.5C46.3,66,36,76.6,36,89.8v0C36,103,46.5,113,59.7,113H118"/>
	<path class="st2" d="M59.4,103.5l57.1-0.1c13.2,0,23.5,10.6,23.5,23.8v0c1,13.2-10.3,23.9-23.6,23.9l-80.3,0.1"/>
</g>
</svg>
