<?xml version="1.0" encoding="utf-8"?>
<!-- Generator: Adobe Illustrator 18.0.0, SVG Export Plug-In . SVG Version: 6.00 Build 0)  -->
<!DOCTYPE svg PUBLIC "-//W3C//DTD SVG 1.1//EN" "http://www.w3.org/Graphics/SVG/1.1/DTD/svg11.dtd">
<svg version="1.1" id="Layer_1" xmlns="http://www.w3.org/2000/svg" xmlns:xlink="http://www.w3.org/1999/xlink" x="0px" y="0px"
	 viewBox="0 0 192 218" style="enable-background:new 0 0 192 218;" xml:space="preserve">
<style type="text/css">
	.st0{fill:#030202;}
	.st1{fill:#030202;stroke:#030202;stroke-miterlimit:10;}
</style>
<g>
	<ellipse class="st0" cx="96.6" cy="164.4" rx="15.6" ry="13.3"/>
	<path class="st1" d="M111.6,160.7h4.6c4.4,0,8.7-1.6,12.1-4.5c5.3-4.6,12.2-13,14.1-26.2c0,0-6.5,1.7-8.7-4.3l0.2-39.2
		c0,0,1.5-3.3,3.5-3.5c0,0-4.6-11-14.8-20.3c-15.4-14-38.3-15.5-56-4.5c-7.8,4.8-16,12.5-22.2,24.8c0,0,4.5,0.2,4.8,4.2v38.9
		c0,0-0.8,3.3-4,4c0,0-13.5,1.3-19.6-12.9c-3.1-7.3-3.2-15.6,0.1-22.9c1.6-3.5,4-6.9,7.6-8.7c0,0,12.3-45.3,58.1-45.3
		s57.4,44.5,57.4,44.5s11.3,7.8,11.3,22s-10.3,19.8-10.3,19.8s-0.9,26.8-22.4,39.2c-2.6,1.5-5.6,2.3-8.7,2.3h-7.2L111.6,160.7z"/>
</g>
</svg>
