<?xml version="1.0" encoding="utf-8"?>
<!-- Generator: Adobe Illustrator 18.0.0, SVG Export Plug-In . SVG Version: 6.00 Build 0)  -->
<!DOCTYPE svg PUBLIC "-//W3C//DTD SVG 1.1//EN" "http://www.w3.org/Graphics/SVG/1.1/DTD/svg11.dtd">
<svg version="1.1" id="Layer_1" xmlns="http://www.w3.org/2000/svg" xmlns:xlink="http://www.w3.org/1999/xlink" x="0px" y="0px"
	 viewBox="0 0 192 218" style="enable-background:new 0 0 192 218;" xml:space="preserve">
<style type="text/css">
	.st0{fill:none;stroke:#231F20;stroke-width:7.3993;stroke-miterlimit:10;}
	.st1{fill:#231F20;stroke:#231F20;stroke-width:1.2332;stroke-miterlimit:10;}
	.st2{fill:#FFFFFF;}
	.st3{fill:none;stroke:#231F20;stroke-width:1.2993;stroke-miterlimit:10;}
	.st4{fill:#FFFAFC;stroke:#FFFFFF;stroke-width:1.2993;stroke-miterlimit:10;}
</style>
<g>
	<path class="st0" d="M23.6,115.3V47.3c0-2.7,2.2-4.9,4.9-4.9h117c2.7,0,4.9,2.2,4.9,4.9v33.6"/>
	<line class="st0" x1="39.3" y1="134.6" x2="115.7" y2="134.6"/>
	<path class="st0" d="M177.3,86.9h-52.4c-1.4,0-2.5,1.1-2.5,2.5v63.5c0,1.4,1.1,2.5,2.5,2.5h52.4c1.4,0,2.5-1.1,2.5-2.5V89.4
		C179.8,88,178.7,86.9,177.3,86.9z"/>
	<path class="st1" d="M73.1,142.2l-4.8,14.6c-0.4,1.2,0.5,2.4,1.8,2.4h33.4c1.8,0,3.1-1.8,2.5-3.5l-4.8-13.8c-0.2-0.4-0.6-0.7-1-0.7
		H74.5C73.8,141.1,73.3,141.6,73.1,142.2z"/>
	<g id="XMLID_1_">
		<g>
			<circle class="st2" cx="24.6" cy="154.8" r="1.8"/>
			<path d="M24.6,156.6c1,0,1.8-0.8,1.8-1.8s-0.8-1.8-1.8-1.8c-1,0-1.8,0.8-1.8,1.8S23.6,156.6,24.6,156.6z M13.4,151.7h22.3v-27.1
				h1.3v32.9c0,1-0.8,1.7-1.7,1.7H13.9c-1,0-1.7-0.8-1.7-1.7v-5.7H13.4z"/>
			<path d="M13.4,124.6v27.1h-1.2v-32.3c0-1,0.8-1.7,1.7-1.7h21.4c0.9,0,1.7,0.8,1.7,1.7v5.2h-1.3H13.4z"/>
		</g>
		<g>
			<path class="st3" d="M37.1,124.6v-5.2c0-1-0.8-1.7-1.7-1.7H13.9c-1,0-1.7,0.8-1.7,1.7v32.3v5.7c0,1,0.8,1.7,1.7,1.7h21.4
				c0.9,0,1.7-0.8,1.7-1.7V124.6z"/>
			<rect x="13.4" y="124.6" class="st3" width="22.3" height="27.1"/>
		</g>
	</g>
	<line class="st4" x1="19.3" y1="121.6" x2="29.3" y2="121.6"/>
</g>
</svg>
