<?xml version="1.0" encoding="utf-8"?>
<!-- Generator: Adobe Illustrator 18.0.0, SVG Export Plug-In . SVG Version: 6.00 Build 0)  -->
<!DOCTYPE svg PUBLIC "-//W3C//DTD SVG 1.1//EN" "http://www.w3.org/Graphics/SVG/1.1/DTD/svg11.dtd">
<svg version="1.1" fill='#fff' id="Layer_1" xmlns="http://www.w3.org/2000/svg" xmlns:xlink="http://www.w3.org/1999/xlink" x="0px" y="0px"
	 viewBox="0 0 192 218" style="enable-background:new 0 0 192 218;" xml:space="preserve">
<style type="text/css">
	.st0{clip-path:url(#SVGID_2_);}
</style>
<g>
	<g>
		<defs>
			<path id="SVGID_1_" d="M36.2,40.6h119.7c2.8,0,5,2.2,5,5v126.9c0,2.8-2.2,5-5,5H36.2c-2.8,0-5-2.2-5-5V45.6
				C31.1,42.8,33.4,40.6,36.2,40.6z"/>
		</defs>
		<clipPath id="SVGID_2_">
			<use xlink:href="#SVGID_1_"  style="overflow:visible;"/>
		</clipPath>
		<path class="st0" d="M158.8,69.3c0.5,0,0.8-0.7,0.4-1l-15.3-13.3l-15.6-13.6c-0.5-0.5-1.3-0.5-1.8,0l-15.5,13.6L95.5,68.4
			c-0.4,0.3-0.1,0.9,0.3,0.9h16.6c-6.1,37.2-40.5,66.2-79.6,60.1c-1.7-0.3-2.4,2-0.7,2.6c48.7,17,104.9-10.9,113-62.7H158.8z
			 M160.3,69.3"/>
	</g>
	<path d="M115.9,123.9c-2.1,1.5-4.2,2.9-6.4,4.2c-1.5,0.9-2.5,2.5-2.5,4.3v38.4c0,2.8,2.2,5,5,5h6.8c2.8,0,5-2.2,5-5v-42.9
		C123.8,123.8,119.2,121.5,115.9,123.9z M123.8,117.4"/>
	<path d="M86.7,175.8h6.8c2.8,0,5-2.2,5-5v-29.9c0-3.4-3.4-5.8-6.6-4.7c-2.1,0.7-4.3,1.4-6.5,1.9c-2.2,0.6-3.7,2.6-3.7,4.8v27.8
		C81.7,173.6,83.9,175.8,86.7,175.8z M81.7,175.8"/>
	<path d="M137.2,175.8h6.8c2.8,0,5-2.2,5-5V73.5h-0.4c-2.5,12.5-7.9,23.8-15.4,33.5c-0.7,0.9-1.1,1.9-1.1,3.1v60.7
		C132.2,173.6,134.5,175.8,137.2,175.8z M132.2,175.8"/>
	<path d="M44,139.5c-2.2-0.4-4.3-0.9-6.5-1.5c-3.2-0.8-6.4,1.5-6.4,4.8v28c0,2.8,2.2,5,5,5H43c2.8,0,5-2.2,5-5v-26.4
		C48,142,46.3,139.9,44,139.5z M48,140.1"/>
	<path d="M61.4,175.8h6.8c2.8,0,5-2.2,5-5v-24.9c0-2.9-2.5-5.2-5.4-5c-2.1,0.1-4.2,0.2-6.3,0.2c0,0,0,0-0.1,0c-2.8,0-5.1,2.2-5.1,5
		v24.7C56.4,173.6,58.7,175.8,61.4,175.8z M56.4,175.8"/>
</g>
</svg>
