<?xml version="1.0" encoding="utf-8"?>
<!-- Generator: Adobe Illustrator 18.0.0, SVG Export Plug-In . SVG Version: 6.00 Build 0)  -->
<!DOCTYPE svg PUBLIC "-//W3C//DTD SVG 1.1//EN" "http://www.w3.org/Graphics/SVG/1.1/DTD/svg11.dtd">
<svg fill='#fff' version="1.1" id="Layer_1" xmlns="http://www.w3.org/2000/svg" xmlns:xlink="http://www.w3.org/1999/xlink" x="0px" y="0px"
	 viewBox="0 0 192 218" style="enable-background:new 0 0 192 218;" xml:space="preserve">
<style type="text/css">
	.st0{fill:#fff;}
</style>
<g>
	<path class="st0" d="M50.6,72.4c0-1,0.5-1.5,1.5-1.5c1,0,1.5,0.5,1.5,1.5v48.9c0,4.8-1.7,8.9-5.1,12.3c-3.4,3.4-7.5,5.1-12.3,5.1
		c-4.8,0-8.9-1.7-12.3-5.1c-3.4-3.4-5.1-7.5-5.1-12.3V72.4c0-1,0.5-1.5,1.5-1.5c1,0,1.5,0.5,1.5,1.5v48.9c0,3.9,1.4,7.3,4.2,10.1
		c2.8,2.8,6.2,4.2,10.1,4.2s7.3-1.4,10.1-4.2c2.8-2.8,4.2-6.2,4.2-10.1V72.4z"/>
	<path class="st0" d="M71.7,71.5c0.4,0.4,0.7,1,0.7,1.6c0,0.6-0.2,1.2-0.7,1.6c-0.4,0.4-1,0.7-1.6,0.7c-0.6,0-1.2-0.2-1.6-0.7
		c-0.4-0.4-0.7-1-0.7-1.6c0-0.6,0.2-1.2,0.7-1.6c0.4-0.4,1-0.7,1.6-0.7C70.7,70.8,71.2,71,71.7,71.5z M68.6,93.9
		c0-1,0.5-1.5,1.5-1.5c1,0,1.5,0.5,1.5,1.5v43.2c0,1-0.5,1.5-1.5,1.5c-1,0-1.5-0.5-1.5-1.5V93.9z"/>
	<path class="st0" d="M118.2,72.4c0-1,0.5-1.5,1.5-1.5c1,0,1.5,0.5,1.5,1.5v48.9c0,4.8-1.7,8.9-5.1,12.3c-3.4,3.4-7.5,5.1-12.3,5.1
		c-4.8,0-8.9-1.7-12.3-5.1c-3.4-3.4-5.1-7.5-5.1-12.3V72.4c0-1,0.5-1.5,1.5-1.5c1,0,1.5,0.5,1.5,1.5v48.9c0,3.9,1.4,7.3,4.2,10.1
		c2.8,2.8,6.2,4.2,10.1,4.2s7.3-1.4,10.1-4.2c2.8-2.8,4.2-6.2,4.2-10.1V72.4z"/>
	<path class="st0" d="M131.6,138.3c-0.8-0.6-1-1.3-0.4-2.1l14.1-20.7l-14.1-20.7c-0.6-0.8-0.4-1.6,0.4-2.1c0.8-0.6,1.5-0.4,2.1,0.4
		l13.5,19.8L160.6,93c0.6-0.8,1.3-1,2.1-0.4c0.8,0.6,1,1.3,0.4,2.1L149,115.5l14.1,20.7c0.6,0.8,0.4,1.6-0.4,2.1
		c-0.8,0.6-1.6,0.4-2.1-0.4l-13.5-19.8l-13.5,19.8C133.2,138.7,132.5,138.9,131.6,138.3z"/>
</g>
</svg>
